<svg xmlns="http://www.w3.org/2000/svg" width="19.591" height="17.481" viewBox="0 0 19.591 17.481">
  <path id="cart-shopping-solid" d="M.819,0a.819.819,0,0,0,0,1.639H2.6L4.657,12.445a.823.823,0,0,0,.806.666h11.2a.819.819,0,0,0,0-1.639H6.142L5.831,9.833H16.654a1.093,1.093,0,0,0,1.052-.8L19.55,2.482A1.094,1.094,0,0,0,18.5,1.093H4.165L4.083.666A.822.822,0,0,0,3.278,0Zm5.19,17.481A1.639,1.639,0,1,0,4.37,15.842,1.639,1.639,0,0,0,6.009,17.481Zm11.472-1.639a1.639,1.639,0,1,0-1.639,1.639A1.639,1.639,0,0,0,17.481,15.842Z" fill="#fff"/>
</svg>
