<svg width="23" height="18" viewBox="0 0 23 18" fill="none" xmlns="http://www.w3.org/2000/svg">
<path fill-rule="evenodd" clip-rule="evenodd" d="M19.2346 5.10947C19.4399 5.39762 19.375 5.79931 19.0879 6.00604L12.285 10.927C11.9893 11.1423 11.6405 11.2494 11.2928 11.2494C10.9472 11.2494 10.6005 11.1434 10.3048 10.9313L3.45727 6.00711C3.17121 5.80145 3.10421 5.39976 3.30839 5.11054C3.51364 4.82132 3.91243 4.75384 4.1985 4.96165L11.045 9.88477C11.1928 9.99081 11.3917 9.99189 11.5406 9.8837L18.3445 4.96272C18.6306 4.75384 19.0294 4.82239 19.2346 5.10947ZM19.7802 0.85907H2.76498C1.23999 0.85907 0 2.10913 0 3.64413V14.3559C0 15.8919 1.23999 17.1409 2.76498 17.1409H19.7802C21.3041 17.1409 22.5441 15.8919 22.5441 14.3559V3.64413C22.5441 2.10913 21.3041 0.85907 19.7802 0.85907Z" fill="#757575"/>
</svg>
